<svg xmlns="http://www.w3.org/2000/svg" viewBox="0 0 24 24"><title>MediaWiki</title><path fill="#36c" d="M0 3.7v.83c.83.1 1.4.32 1.7.66.3.34.66 1.04 1.07 2.1L7.1 18.6h1.04l3.5-7.9 3.42 7.9h.96l4.6-12.1c.32-.84.68-1.4 1.08-1.68.4-.28.88-.43 1.46-.46v-.83h-5.3v.83c.85.04 1.42.18 1.7.42.28.24.42.55.42.93 0 .27-.08.62-.24 1.05l-3.07 8.27-2.55-6 .92-2.27c.34-.85.7-1.4 1.07-1.65.37-.25.9-.4 1.6-.45v-.83h-4.96v.83c.66.07 1.1.2 1.32.4.22.2.33.46.33.78 0 .27-.1.66-.3 1.16l-.55 1.42-.62-1.5c-.2-.5-.3-.86-.3-1.1 0-.66.55-1.03 1.66-1.13v-.83H5.04v.83c.55.05.97.22 1.26.5.3.3.66.92 1.1 1.9l1.4 3.3-1.9 4.5L4.1 7.3a8.6 8.6 0 0 1-.4-1.3 1.3 1.3 0 0 1 .43-1.06c.3-.27.78-.42 1.45-.45v-.8z"/></svg>
