<svg xmlns="http://www.w3.org/2000/svg" viewBox="0 0 24 24"><title>Nextcloud</title><path fill="#0082c9" d="M12 4.34c-2.55 0-4.71 1.74-5.36 4.09-.56-1.22-1.79-2.07-3.21-2.07A3.44 3.44 0 0 0 0 9.79a3.44 3.44 0 0 0 3.43 3.44c1.42 0 2.65-.86 3.21-2.08.65 2.35 2.81 4.1 5.36 4.1 2.54 0 4.69-1.73 5.35-4.06.57 1.2 1.79 2.04 3.2 2.04A3.44 3.44 0 0 0 24 9.79a3.44 3.44 0 0 0-3.45-3.43c-1.41 0-2.63.84-3.2 2.05-.66-2.34-2.81-4.07-5.35-4.07zm0 2.96a2.49 2.49 0 0 1 2.5 2.49A2.49 2.49 0 0 1 12 12.28a2.49 2.49 0 0 1-2.5-2.49A2.49 2.49 0 0 1 12 7.3zm-8.57 1.1c.79 0 1.4.61 1.4 1.39 0 .78-.61 1.4-1.4 1.4a1.38 1.38 0 0 1-1.39-1.4c0-.78.61-1.39 1.39-1.39zm17.14 0c.78 0 1.39.61 1.39 1.39 0 .78-.61 1.4-1.39 1.4-.79 0-1.4-.62-1.4-1.4 0-.78.61-1.39 1.4-1.39z"/></svg>
