<svg xmlns="http://www.w3.org/2000/svg" viewBox="0 0 24 24"><title>Ollama</title><path fill="#000" d="M7.9 2.2c-1 .5-1.7 1.7-2 3-.1.7-.1 2 .1 3-.9.9-1.5 2.1-1.7 3.4-.2 1-.1 1.3-.1 2.6-.7.8-1.1 1.8-1.1 2.9 0 1 .3 1.8.9 2.6-.2.5-.3 1-.3 1.6 0 .3 0 .5.1.7h2c-.1-.3-.2-.6-.2-.9 0-.5.2-1 .5-1.4l.4-.5-.5-.4c-.5-.4-.8-1-.8-1.7 0-.8.4-1.5 1.1-2l.4-.3v-.5c-.1-1.3-.1-1.4 0-2.1.2-1.3 1-2.4 2-2.9l.6-.3-.3-.6c-.4-.8-.5-2-.3-2.9.2-.9.6-1.5 1-1.7.5-.2 1.1 0 1.7.6.4.4.7.9.9 1.3l.3.7.7-.2c.6-.2 1.3-.2 1.9 0l.7.2.3-.7c.2-.4.5-.9.9-1.3.6-.6 1.2-.8 1.7-.6.4.2.8.8 1 1.7.2.9.1 2.1-.3 2.9l-.3.6.6.3c1 .5 1.8 1.6 2 2.9.1.7.1.8 0 2.1v.5l.4.3c.7.5 1.1 1.2 1.1 2 0 .7-.3 1.3-.8 1.7l-.5.4.4.5c.3.4.5.9.5 1.4 0 .3-.1.6-.2.9h2c.1-.2.1-.4.1-.7 0-.6-.1-1.1-.3-1.6.6-.8.9-1.6.9-2.6 0-1.1-.4-2.1-1.1-2.9 0-1.3.1-1.6-.1-2.6-.2-1.3-.8-2.5-1.7-3.4.2-1 .2-2.3.1-3-.3-1.3-1-2.5-2-3-1.3-.6-2.7 0-3.8 1.4-.9-.2-1.8-.2-2.6 0C10.6 2.2 9.2 1.6 7.9 2.2zm4.1 8.7c-2.5 0-4.5 1.7-4.5 3.8 0 1.2.6 2.2 1.6 2.9-.3.4-.5.9-.5 1.4 0 1.4 1.5 2.6 3.4 2.6s3.4-1.2 3.4-2.6c0-.5-.2-1-.5-1.4 1-.7 1.6-1.7 1.6-2.9 0-2.1-2-3.8-4.5-3.8zm-2 4c.5 0 1 .4 1 1s-.5 1-1 1-1-.4-1-1 .5-1 1-1zm4 0c.5 0 1 .4 1 1s-.5 1-1 1-1-.4-1-1 .5-1 1-1zm-2 2.6c.6 0 1.1.2 1.1.5s-.5.5-1.1.5-1.1-.2-1.1-.5.5-.5 1.1-.5z"/></svg>
