<svg xmlns="http://www.w3.org/2000/svg" viewBox="0 0 24 24"><title>Matrix</title><g fill="#0dbd8b"><path d="M2.5 1.5H6v1.6H4.1v17.8H6V22.5H2.5z"/><path d="M21.5 22.5H18v-1.6h1.9V3.1H18V1.5h3.5z"/><path d="M8.2 8.1v1.06h.03c.28-.4.62-.71 1.02-.93.4-.22.86-.33 1.38-.33.5 0 .95.1 1.36.29.41.19.72.53.93 1.02.23-.34.55-.64.94-.9.4-.27.87-.4 1.41-.4.41 0 .8.05 1.15.15.36.1.66.27.91.5.26.23.46.54.6.92.15.38.22.85.22 1.4v5.68h-2.16v-4.81c0-.29-.01-.56-.03-.81a1.74 1.74 0 0 0-.16-.66.99.99 0 0 0-.4-.44 1.4 1.4 0 0 0-.72-.16c-.3 0-.55.06-.74.18-.2.11-.35.27-.46.46a1.9 1.9 0 0 0-.23.66c-.04.25-.06.5-.06.76v4.82H12.6v-4.76c0-.26-.01-.51-.02-.77a2.16 2.16 0 0 0-.13-.7.99.99 0 0 0-.38-.5 1.32 1.32 0 0 0-.78-.19c-.13 0-.3.03-.51.09-.21.06-.42.17-.62.34-.2.16-.37.4-.51.71-.14.31-.21.72-.21 1.22v4.56H7.3V8.1z"/></g></svg>
